# xmcd CD database file
#
# Track frame offsets:
#	150
#	13079
#	25331
#	36456
#	49587
#	65631
#	77344
#	89202
#	111521
#	122068
#	132081
#	142342
#	159518
#	173860
#	188806
#	200385
#	214725
#	226607
#	238251
#	256990
#	270631
#
# Disc length: 3862 seconds
#
# Revision: 1
# Processed by: cddbd v1.5.2PL0 Copyright (c) Steve Scherf et al.
# Submitted via: CDex 1.51
#
DISCID=340f1415
DTITLE=Georgie Fame - Sound Venture
DYEAR=1966
DGENRE=Rock
TTITLE0=Many Happy Returns
TTITLE1=Down For The Count
TTITLE2=It's For Love The Petals Fall
TTITLE3=I Am Missing You
TTITLE4=Funny How Time Slips Away
TTITLE5=Lil' Pony
TTITLE6=Lovey Dovey
TTITLE7=Lil' Darlin' (Version 2)
TTITLE8=Three Blind Mice
TTITLE9=Dawn Yawn
TTITLE10=Feed Me
TTITLE11=Papa's Got A Brand New Bag
TTITLE12=Something
TTITLE13=Outrage
TTITLE14=Getaway
TTITLE15=El Bandido
TTITLE16=Sunny
TTITLE17=Don't Make Promises
TTITLE18=Tan Tan's Tune
TTITLE19=Soul Stomp
TTITLE20=Lil' Darlin' (Version 1)
EXTD=YEAR: 1966
EXTT0=
EXTT1=
EXTT2=
EXTT3=
EXTT4=
EXTT5=
EXTT6=
EXTT7=
EXTT8=
EXTT9=
EXTT10=
EXTT11=
EXTT12=
EXTT13=
EXTT14=
EXTT15=
EXTT16=
EXTT17=
EXTT18=
EXTT19=
EXTT20=
PLAYORDER=
